<?xml version="1.0" encoding="utf-8"?>
<!-- Generator: Adobe Illustrator 23.0.3, SVG Export Plug-In . SVG Version: 6.00 Build 0)  -->
<svg version="1.1" xmlns="http://www.w3.org/2000/svg" xmlns:xlink="http://www.w3.org/1999/xlink" x="0px" y="0px"
	 viewBox="0 0 1368 541" style="enable-background:new 0 0 1368 541;" xml:space="preserve">
<style type="text/css">
	.st0{fill:#DDDDDD;}
	.st1{fill:none;stroke:#DDDDDD;stroke-linecap:round;stroke-linejoin:round;}
	.st2{fill:none;stroke:#EDEDED;stroke-width:2;stroke-linecap:round;stroke-linejoin:round;}
	.st3{fill:none;stroke:#DDDDDD;stroke-width:2;stroke-linecap:round;stroke-linejoin:round;}
	.st4{fill:#F9F9F9;stroke:#DDDDDD;stroke-linecap:round;stroke-linejoin:round;}
	.st5{fill:#F9F9F9;stroke:#EDEDED;stroke-linecap:round;stroke-linejoin:round;}
	.st6{fill:none;stroke:#EDEDED;stroke-linecap:round;stroke-linejoin:round;}
	.st7{fill:#DDDDDD;stroke:#DDDDDD;stroke-miterlimit:10;}
	.st8{fill:none;stroke:#F9F9F9;stroke-linecap:round;stroke-linejoin:round;}
	.st9{fill:#E0BFB1;}
	.st10{fill:none;stroke:#EF8A66;stroke-width:0.75;stroke-linecap:round;stroke-linejoin:round;}
	.st11{fill:#E0BFB1;stroke:#EF8A66;stroke-miterlimit:10;}
	.st12{fill:#FFFFFF;}
	.st13{fill:#4F30BF;}
	.st14{fill:none;stroke:#83ADDF;stroke-width:0.75;stroke-linecap:round;stroke-linejoin:round;}
	.st15{fill:#5E5A57;}
	.st16{fill:none;stroke:#91613D;stroke-width:0.75;stroke-linecap:round;stroke-linejoin:round;}
	.st17{fill:#6553C1;}
	.st18{fill:#F4A789;}
	.st19{fill:#F4AF90;}
	.st20{fill:#1E1D1D;}
	.st21{fill:#683F1D;}
	.st22{fill:#353330;}
	.st23{fill:#2D2C2B;}
	.st24{fill:#353433;}
	.st25{fill:#232221;}
	.st26{fill:#B57724;}
	.st27{display:none;fill:none;stroke:#9B621F;stroke-width:0.75;stroke-linecap:round;stroke-linejoin:round;}
	.st28{fill:#FFFFFF;stroke:#EF8A66;stroke-width:0.75;stroke-linecap:round;stroke-linejoin:round;}
	.st29{display:none;fill:#FFFFFF;}
	.st30{fill:#AD8140;}
	.st31{fill:#C1B584;}
	.st32{display:none;fill:#A7CAF0;}
	.st33{fill:#211F1E;}
	.st34{display:none;fill:#704725;}
	.st35{fill:none;stroke:#A56F42;stroke-width:0.75;stroke-linecap:round;stroke-linejoin:round;}
	.st36{display:none;fill:none;stroke:#A56F42;stroke-width:0.75;stroke-linecap:round;stroke-linejoin:round;}
	.st37{fill:#7F542D;}
	.st38{fill:#EDEDED;}
	.st39{fill:none;stroke:#DDDDDD;stroke-width:0.75;stroke-linecap:round;stroke-linejoin:round;}
	.st40{fill:none;}
	.st41{font-family:'TektonPro-Bold';}
	.st42{font-size:36px;}
	.st43{font-size:18px;}
</style>
<g id="Layer_1">
	<g id="background">
		<path class="st0" d="M209,130.1c0,1.9-3.3,3.4-7.3,3.4c-4,0-7.3-1.5-7.3-3.4c0-1.9,3.3-3.4,7.3-3.4c0,0,0,0,0,0
			C205.7,126.7,209,128.2,209,130.1z"/>
		<ellipse class="st0" cx="201.7" cy="145.7" rx="7.3" ry="3.4"/>
		<path class="st0" d="M209,161.5c0,1.9-3.3,3.4-7.3,3.4c-4,0-7.3-1.5-7.3-3.4c0-1.9,3.3-3.4,7.3-3.4c0,0,0,0,0,0
			C205.7,158.2,209,159.7,209,161.5z"/>
		<rect x="189.3" y="93.4" class="st1" width="313.7" height="17.7"/>
		<rect x="57.2" y="59.6" class="st2" width="1272.6" height="373.4"/>
		<rect x="36" y="433.5" class="st3" width="1315" height="16.3"/>
		<rect x="36" y="43.3" class="st3" width="1315" height="16.3"/>
		<path class="st4" d="M1241.5,113.1c-44.6-11-66.8,19.9-50,39.3c4,4.6,3.4,8.3-0.4,13.8c-3.7,5.5-3.8,9.5,6.3,12s14.6-0.3,18.4-5.9
			c3.7-5.5,7.7-8.4,15.7-10C1266,155.6,1286.1,124.2,1241.5,113.1z"/>
		<path class="st1" d="M1202.4,172.3c-2.6-6.6-1.7-11.2,6.1-12.3c7.8-1.1,14.1-3.8,10.6-7.2c-3.4-3.5-17.6-4.3-13.7-0.1
			c3.9,4.2,24.3,2.7,19.5-1.4c-4.8-4.1-16.2-7.5-11.5-8.1c4.7-0.7,19,3.3,14.3,0.2c-9.3-6.1,1.6-7.4,4.5-13.9"/>
		<path class="st5" d="M1221.5,170.3c-1.6,1.6-2.9,3.3-4.1,5c-0.9,1.3-1.9,2.6-3.1,3.8c-4.3,4.3-10,6.1-20.1,3.6s-12.1-6.1-10.1-11
			c0.6-1.4,1.3-2.7,2.2-4c1.2-1.7,2.2-3.5,2.9-5.3C1199.1,166.2,1210.1,168.9,1221.5,170.3z"/>
		<path class="st5" d="M1221.5,170.3c-1.4,1.4-2.6,2.9-3.7,4.5c-0.2,0.2-0.3,0.4-0.4,0.5c-0.9,1.3-1.9,2.6-3.1,3.8
			c-4.1,0.6-9.4,0.1-16.5-1.7s-11.4-3.7-13.7-5.8c0.6-1.4,1.3-2.7,2.2-4l0.3-0.5c1-1.5,1.9-3.1,2.6-4.8
			C1199.1,166.2,1210,168.9,1221.5,170.3z"/>
		<path class="st5" d="M1221.5,170.3c-1.4,1.4-2.6,2.9-3.7,4.5c-11.1-1.3-21.7-3.9-31.1-7.7c1-1.5,1.9-3.1,2.6-4.8
			C1199.1,166.2,1210.1,168.9,1221.5,170.3z"/>
		<line class="st3" x1="1249.1" y1="105.9" x2="1257.5" y2="93.4"/>
		<line class="st3" x1="1281.8" y1="125" x2="1302.2" y2="123.3"/>
		<line class="st3" x1="1191.4" y1="108" x2="1173.3" y2="96.3"/>
		<line class="st6" x1="1220.5" y1="103.1" x2="1220.5" y2="94.8"/>
		<line class="st6" x1="1274" y1="150.8" x2="1279.6" y2="156.6"/>
		<line class="st6" x1="1270" y1="115.3" x2="1281" y2="112.2"/>
		<path class="st7" d="M161.1,171.7h-59.9c-5.2,10.4-3.7,21.3,4.2,31.3l62.8-0.5C168.3,202.6,151.3,185.6,161.1,171.7z"/>
		<line class="st8" x1="147.6" y1="179.5" x2="117.1" y2="179.5"/>
		<line class="st8" x1="145.7" y1="185.6" x2="122.6" y2="185.6"/>
		<line class="st8" x1="147.1" y1="191.4" x2="115.2" y2="191.4"/>
		<path class="st1" d="M115.6,125.7h57.7c4.5,9.3,0.9,19.1-10,27.2l-62.4-1.2C100.8,151.7,119.8,139.1,115.6,125.7z"/>
		<line class="st1" x1="126.1" y1="132" x2="163.8" y2="132"/>
		<line class="st1" x1="126.6" y1="137.8" x2="156.7" y2="137.8"/>
		<line class="st1" x1="126.1" y1="145.4" x2="140.3" y2="145.4"/>
		<line class="st1" x1="143.5" y1="145.4" x2="153" y2="145.4"/>
		<path class="st6" d="M257.7,212.8l57.7,0.1c4.5,9.3,1,19.1-9.9,27.2l-62.4-1.2C243.1,238.8,262,226.2,257.7,212.8z"/>
		<line class="st6" x1="268.2" y1="219.1" x2="305.9" y2="219.1"/>
		<line class="st6" x1="268.8" y1="224.9" x2="298.9" y2="224.9"/>
		<line class="st6" x1="268.2" y1="232.6" x2="282.5" y2="232.6"/>
		<line class="st6" x1="285.7" y1="232.6" x2="295.1" y2="232.6"/>
		<path class="st6" d="M1006.1,336.9h57.7c4.5,9.3,0.9,19.1-10,27.2l-62.4-1.2C991.3,362.9,1010.3,350.3,1006.1,336.9z"/>
		<line class="st6" x1="1016.6" y1="343.3" x2="1054.3" y2="343.3"/>
		<line class="st6" x1="1017.1" y1="349.1" x2="1047.2" y2="349.1"/>
		<line class="st6" x1="1016.6" y1="356.7" x2="1030.8" y2="356.7"/>
		<line class="st6" x1="1034" y1="356.7" x2="1043.5" y2="356.7"/>
		<path class="st1" d="M1131.6,123.1l-57.7,0.1c-4.5,9.3-0.9,19.1,10,27.2l62.4-1.2C1146.4,149.2,1127.4,136.6,1131.6,123.1z"/>
		<line class="st1" x1="1121.1" y1="129.5" x2="1083.5" y2="129.5"/>
		<line class="st1" x1="1120.6" y1="135.3" x2="1090.5" y2="135.3"/>
		<line class="st1" x1="1121.1" y1="142.9" x2="1106.9" y2="142.9"/>
		<line class="st1" x1="1103.7" y1="142.9" x2="1094.3" y2="142.9"/>
		<line class="st6" x1="553.8" y1="90.1" x2="553.8" y2="368.1"/>
	</g>
	<g id="Man">
		<g id="hand">
			<path class="st9" d="M1042.7,204.7c-5.5-14.6-7.9-19.8-11-22.9c-3.1-3.2-11.9-6.5-11.9-6.5s-3.7-12.8-8.4-12.4
				c-4.7,0.4,3.1,17.5,3.1,17.5l-4.1,16.7c1.3,2,2.4,4.1,3.1,6.3c3.2,9.5,12.1,10.4,14.5,18.4
				C1027.8,221.2,1042.6,213.2,1042.7,204.7z"/>
			<path class="st9" d="M1042.7,204.7c-5.5-14.6-7.9-19.8-11-22.9c-3.1-3.2-11.9-6.5-11.9-6.5s-3.7-12.8-8.4-12.4
				c-4.7,0.4,3.1,17.5,3.1,17.5l-4.1,16.7c1.3,2,2.4,4.1,3.1,6.3c3.2,9.5,12.1,10.4,14.5,18.4
				C1027.8,221.2,1042.6,213.2,1042.7,204.7z"/>
			<path class="st10" d="M1031.7,181.7c-3.1-3.2-11.9-6.5-11.9-6.5s-3.7-12.8-8.4-12.4c-4.7,0.4,3.1,17.5,3.1,17.5l-4.1,16.7"/>
			<path class="st11" d="M1005.6,190.5c3.9-2.8,10.6,7.4,6.5,10.1C1009.3,202.6,1001.9,193.1,1005.6,190.5z"/>
			<path class="st10" d="M1019.8,175.2c-3.1-1.1-3.5,3.6-0.8,5.4c2.7,1.8,4.4,2.2,4.8,3.3s1.2,4.7,1.2,4.7
				c-1.8,4.5-1.3,9.5,1.3,13.7"/>
			<path class="st11" d="M1008.5,184.7c3.9-2.8,12.1,9.9,8.1,12.6C1013.8,199.3,1004.8,187.3,1008.5,184.7z"/>
			<path class="st11" d="M1011.9,180.6c3.9-2.8,12.1,9.9,8.1,12.6C1017.2,195.2,1008.2,183.2,1011.9,180.6z"/>
			<path class="st12" d="M1028.4,230.9l-5.2-9.2c0,0,12.8-7.9,19.5-17.1l4.4,6.6C1047.1,211.3,1041.8,232.1,1028.4,230.9z"/>
			<path class="st13" d="M1105.2,275.3c-17.9-23.2-40.8-46-44.1-49.2c-1.7-1.8-4.2-3-6.8-3.3l-8-12.8c0,0-8.7,11.7-23.1,18l7.3,12.5
				c0,0-2.2,1.5,2.7,10.7c4.9,9.2,23.8,44.4,33.3,51.4C1089.3,319.3,1128.7,305.8,1105.2,275.3z"/>
			<line class="st14" x1="1042.1" y1="233.3" x2="1034" y2="221.7"/>
			<line class="st14" x1="1037.3" y1="236.2" x2="1029.3" y2="224.8"/>
			<line class="st14" x1="1042.7" y1="214.1" x2="1051.2" y2="226.4"/>
			<line class="st14" x1="1038.4" y1="218" x2="1046.9" y2="230.3"/>
			<path class="st14" d="M1105.2,275.3c-17.9-23.2-40.8-46-44.1-49.2c-1.7-1.8-4.2-3-6.8-3.3l-8-12.8"/>
		</g>
		<g id="body">
			<path class="st15" d="M1272.2,495h-98.9v-70l88.4-1.1C1268.6,449.7,1272.2,495,1272.2,495z"/>
			<path class="st16" d="M1221.4,495c0,0-3.2-28.2-3.6-30.9c-0.2-1.5-1.5-2.6-3.1-2.8c-1.9-0.4-3.9-0.4-5.8,0"/>
			<path class="st13" d="M1279.3,325c-1.6,23.4-7,59.9-10.8,83.1c-2.1,13.1-3.7,22-3.7,22s-63.3,2.2-80.5,1.8
				c-17.2-0.4-19.1-1.6-19.1-7.8c0-6.2,0.3-84,0.3-84s-84.9-27-97.1-36.1c-12.2-9.2,2.4-39.2,33.8-33.1c7.9,1.6,15.8,3.1,23.8,4.7
				c23.8,4.8,49.1,9.5,80.8,13.6c34.4,4.4,56,4.7,70.7,13.4C1279.9,303.8,1280.2,312.6,1279.3,325z"/>
			<path class="st13" d="M1256.5,348.5c-13.4,7.6-13.4,18.3-8.2,26.6c12.1,19.1-23,6.7-24.5,30.4l50.8-10.8L1256.5,348.5z"/>
			<path class="st17" d="M1297.9,332.3c-5.8-3.2-12-5.6-18.6-7.3c-10.8-2.7-21.2-2.1-28.1,4.3c-1.2,1.1-2.3,2.4-3.2,3.8
				c-17.3,26.1-65.7,21.3-74.7-6.2c-7.6-23.4-19.4-37.9-47.2-51.2c23.8,4.7,49.1,9.5,80.8,13.5c34.4,4.4,56,4.7,70.7,13.4
				C1284.5,305.1,1291.7,317,1297.9,332.3z"/>
			<path class="st14" d="M1210.2,287.5c-11.3,0-20.4,6.5-20.4,14.5c0,4.5,2.9,8.5,7.5,11.2c2.2,1.3,4.6,2.2,7.2,2.7
				c1.9,0.4,3.8,0.6,5.8,0.6c0.4,0,0.9,0,1.3,0c2.7-0.1,5.4-0.6,7.9-1.5c2.4-0.8,4.6-2,6.5-3.6c3-2.4,4.7-5.7,4.8-9.3
				C1230.7,294,1221.5,287.5,1210.2,287.5z M1217,309c-2,0.6-4.1,0.9-6.2,0.9h-0.6c-1.6,0-3.3-0.1-4.9-0.4c-2.1-0.4-4-1-5.8-2
				c-2.9-1.6-4.7-3.8-4.7-6.2c0-4.8,6.9-8.7,15.4-8.7s15.4,3.9,15.4,8.7c0,2.1-1.3,4-3.6,5.6C1220.5,307.7,1218.8,308.5,1217,309z"
				/>
			<path class="st12" d="M1200.1,283.8c-3.8,0.7-8.1,1.8-10.2,5.1s-2.2,17-0.3,18.5c1.9,1.5,4.5-5.7,16.2-9.2L1200.1,283.8z"/>
			<path class="st12" d="M1215.6,298.9l11.9-16.9c0,0,6.3,3,7.3,8.4s-1.7,23.2-6.7,18.7C1224.4,306,1225.3,303.4,1215.6,298.9z"/>
			<line class="st14" x1="1197.3" y1="313.1" x2="1199.5" y2="307.4"/>
			<line class="st14" x1="1204.5" y1="315.8" x2="1205.4" y2="309.4"/>
			<line class="st14" x1="1211.5" y1="316.4" x2="1210.8" y2="309.8"/>
			<line class="st14" x1="1219.4" y1="314.9" x2="1217" y2="308.9"/>
			<line class="st14" x1="1225.9" y1="311.2" x2="1222.1" y2="306.7"/>
			<path class="st9" d="M1229.2,284.3c0.1,2.1-4.7,15.9-17.9,17.1s-15.2-11.8-15.1-15.2c0-1.4,0.2-3.8,0.4-6.8
				c0.3-4.2,0.6-9.5,0.9-14.7l0.1-1.1c1.5-30.5,30.7-24.4,28.8-8.3C1225.2,265.1,1229.1,282.2,1229.2,284.3z"/>
			<path class="st18" d="M1196.6,279.3c0.3-4.2,0.6-9.5,0.9-14.7l16.2-2.2C1214.2,271.6,1209.2,279.6,1196.6,279.3z"/>
			<path class="st14" d="M1262,392.3c0-0.2-0.1-0.4-0.2-0.5c-4.5-16.4-8.3-33.5-9.9-48.4"/>
			<path class="st0" d="M1188,371.8c-1.5-5.7,2.4-7.4,5.7-8.4c-0.3-1.6,0.4-4.2,4.3-4.8c3.8-0.5,5.1,2.8,5.1,2.8s7.9-2.4,9.9,4.8
				L1188,371.8z"/>
			<polygon class="st4" points="1168.8,373.3 1228.5,360.9 1251.2,447.2 1190.9,458.1 			"/>
			<path class="st4" d="M1196,363c0,1.3,1.2,2.4,2.7,2.4c1.5,0,2.7-1.1,2.7-2.4c0-1.3-1.2-2.4-2.7-2.4c0,0,0,0,0,0
				C1197.2,360.6,1196,361.6,1196,363z"/>
		</g>
		<g id="upper_hand">
			<path class="st13" d="M1316,409.9L1316,409.9c0,1.7-0.1,3.4-0.3,5.1v0.3c-0.1,0.3-0.1,0.7-0.3,1c-2.4,7.2-17.9,14-32.2,6.5
				c-1.3-0.7-2.5-1.4-3.6-2.2c-4.6-3.4-8.4-7.7-11.1-12.6c-2.9-5-5.1-10.3-6.6-15.7c0-0.2-0.1-0.4-0.2-0.5
				c-6-21.8-10.7-45-10.7-62.5c0-21.1,6.9-34.1,26.6-26.7c6.8,2.6,13.9,14.4,20.1,29.7c5.3,13.3,9.5,26.9,12.7,40.7
				C1314,387.3,1316,400.8,1316,409.9z"/>
			<path class="st13" d="M1315.8,415v0.3c-0.1,0.3-0.1,0.7-0.3,1c-2.4,7.2-17.9,14-32.2,6.5c-1.3-0.7-2.5-1.4-3.6-2.2
				c4.4-2,9.3-2.9,14.2-2.5c26.4,2.1-1.6-24.1,16.7-45.1c3.4,14.4,5.4,27.8,5.5,36.9l0,0C1316.2,411.6,1316.1,413.3,1315.8,415z"/>
			<path class="st13" d="M1297.9,332.3c-5.8-3.2-12-5.6-18.6-7.3c-10.8-2.7-21.2-2.1-28.1,4.3c0-21.1,6.9-34.1,26.6-26.7
				C1284.5,305.1,1291.7,317,1297.9,332.3z"/>
		</g>
		<g id="hand-2">
			<path class="st9" d="M1198.1,410.3c-1.6-0.9-11.3-5.9-14.1-6.1s-8.8,3.5-8.8,3.5s-11.8,0.6-13.2,2.5c-1.3,1.9,1.3,4.6,3.4,5.5
				s0.1,2.9,0.4,4.5s2.5,2.7,2.7,3.8c0.3,1.1-0.9,4.1,1.8,4.8c2.7,0.7,1,2.2,2.4,4.4c1.4,2.1,9.7,1.7,31-2L1198.1,410.3z"/>
			<path class="st10" d="M1184,404.2c-2.8-0.2-8.8,3.5-8.8,3.5s-11.8,0.6-13.2,2.5c-1.3,1.9,1.3,4.6,3.4,5.5s0.1,2.9,0.4,4.5
				s2.5,2.7,2.7,3.8c0.3,1.1-0.9,4.1,1.8,4.8c2.7,0.7,1,2.2,2.4,4.4c0.6,0.8,2.2,1.3,5.2,1.3"/>
			<polygon class="st12" points="1196.6,408.5 1200.8,433.1 1209.9,431.9 1207.1,407.9 			"/>
			<path class="st13" d="M1315.8,415.3c-0.1,0.3-0.2,0.7-0.3,1c-2.4,8.4-12.4,13.9-39.9,15.6c-2.4,0.2-4.8,0.3-7.1,0.4
				c-32.6,1.7-60.9,1.2-60.9,1.2l-4.3-26.2c14.8-3.9,39.4-11.4,58.7-15c8-1.5,15-2.3,20.2-2c5.9,0.3,11.7,1.1,17.3,2.6
				c1.5,0.4,3,0.9,4.4,1.4c6.6,2.7,11.1,6.9,11.9,13.9c0.1,0.6,0.1,1.1,0.2,1.7l0,0C1316.2,411.7,1316.1,413.5,1315.8,415.3z"/>
			<path class="st14" d="M1282.2,390.3c-5.2-0.3-12.2,0.5-20.2,2c-19.4,3.6-43.9,11.1-58.7,15l4.3,26.2"/>
			<line class="st14" x1="1203.8" y1="410.4" x2="1221.1" y2="407.9"/>
			<line class="st14" x1="1204.6" y1="415.5" x2="1221.5" y2="413.6"/>
			<line class="st14" x1="1205.3" y1="419.3" x2="1221.9" y2="418.1"/>
			<line class="st14" x1="1206.2" y1="425" x2="1222.2" y2="423.9"/>
			<line class="st14" x1="1207.1" y1="429.6" x2="1222.8" y2="428.2"/>
			<path class="st10" d="M1175.2,407.8c4.3-0.4,8.2-0.6,8.2-0.6"/>
			<path class="st17" d="M1315.8,415.3c-0.1,0.3-0.1,0.7-0.3,1c-2.4,8.4-12.4,13.9-39.9,15.6c-2.4,0.2-4.8,0.3-7.1,0.4
				c6.1-13.6,19.7-14.7,25.5-14.2c17.7,1.4,11-9.8,10.1-23.7c6.6,2.7,11.1,6.9,11.9,13.9c0.1,0.6,0.1,1.1,0.2,1.7l0,0
				C1316.2,411.7,1316.1,413.5,1315.8,415.3z"/>
		</g>
		<g id="head">
			<path class="st9" d="M1224.4,234.9c-0.7,4.4-1.8,8.6-3.5,12.8c-2.6,6.1-6.8,11.3-13.6,11.3c-0.7,0-1.4-0.1-2.2-0.2l-18.2-6.7
				c0,0,0.1-0.3,0.3-0.9c1.3-4,3.1-7.8,5.6-11.3c0.2-0.3,0.4-0.6,0.7-0.9c4.3-5.9,8.6-10.6,8.6-10.6s0.3-5.6,5.4-6.5
				S1225.8,226.3,1224.4,234.9z"/>
			<path class="st19" d="M1220.9,247.7c-2.6,6.1-6.8,11.3-13.6,11.3c-4.5-2.6-5.8-7.9-2.9-11.9c2.8-4,8.8-5.2,13.2-2.6
				C1219,245.3,1220.1,246.4,1220.9,247.7z"/>
			<path class="st19" d="M1194.1,243.9c0,3.6-2.9,6.7-6.8,7.3c1.3-4,3.1-7.8,5.6-11.3C1193.7,241.1,1194.1,242.5,1194.1,243.9z"/>
			<path class="st20" d="M1236.2,236.1c-0.8,2.1-3.6,8.6-5.2,12.1c-0.6,1.4-1.1,2.4-1.1,2.4l-4.4-1.4l-3.2-1l-1.1-0.4
				c0,0,0,0.4-0.1,1.2c-0.3,2.7-0.9,5.4-1.8,8.1c-1,3.3-2.6,6.4-4.8,9.2c-6,7.2-21.6,6.5-28.8,0.9c-5-3.9-4-11,0.3-18.5
				c2.1-3.4,4.5-6.6,7.4-9.6c0,0-3.5,7.4-4.1,9c-0.7,2,1.9,1.8,2.9,0.1s2.9-2.9,8.5-1.5c5.6,1.3,7.9,4,6.8,7.6
				c-0.6,2.1,3.8,2.9,7.1,0.1c0.3-0.2,0.5-0.5,0.8-0.8c0.4-0.5,0.8-1,1.2-1.6c3-5.5,4.8-13.9,4.9-17.2c-3.4,0.2-6.2-2.1-4.3-5
				c-3.9,1.5-6.8-1.1-6.2-4.4c-1.7,2.4-5.5,2.2-6-0.6l-3,3.7c-0.6-1.4-0.8-2.9-0.8-4.4c0.2-4.5,4.5-6.1,7.8-5.1
				c0.5-3.2,9-3.9,9.6,0.7c1.8-3,7.9-2.4,8,2.3c2-1,4.6-0.3,5.7,1.5c0.7,1.1,0.7,2.4,0.1,3.5c2.8-0.5,4.5,2.7,2.1,5
				C1234.7,232,1237.3,233.1,1236.2,236.1z"/>
			<path class="st21" d="M1207,239.8c0,0.7,0.6,1.2,1.3,1.2c0.7,0,1.3-0.5,1.3-1.2c0-0.7-0.6-1.2-1.3-1.2
				C1207.6,238.6,1207,239.1,1207,239.8C1207,239.8,1207,239.8,1207,239.8z"/>
			<path class="st21" d="M1198.4,237.2c0,0.7,0.6,1.2,1.3,1.2s1.3-0.5,1.3-1.2c0-0.7-0.6-1.2-1.3-1.2c0,0,0,0,0,0
				C1199,236,1198.4,236.5,1198.4,237.2z"/>
			<path class="st22" d="M1209.7,233.4c-0.7,2.1,6.3,4.3,6.6,3C1216.5,235.4,1210.7,230.3,1209.7,233.4z"/>
			<path class="st23" d="M1199.8,230.6c-0.4,1.1,5.5,3.1,6.2,1.2C1206.8,229.5,1200.1,229.6,1199.8,230.6z"/>
			<path class="st24" d="M1225.5,249.2l-4.3-1.4c-0.3,3.1-0.9,6.2-1.9,9.3c-1.4,0.2-3-0.5-4.6-2.7c0.8-0.7,1.4-1.5,1.9-2.4
				c3-5.5,4.8-13.9,4.9-17.2c-3.3,0.2-6.2-2.1-4.3-5c-3.9,1.5-6.9-1.1-6.2-4.4c-1.7,2.4-5.5,2.2-6-0.6l-3,3.7
				c-0.6-1.4-0.8-2.9-0.8-4.4c1.6-1.5,3.8-2.5,5.7-2c0,0,4.9,1.1,6.6-1c-1,3.4,2.9,6.6,7.4,5.2c0,0,1.6,6.1,7.1,6.1
				c0,0-0.6,5.5,2.6,6C1233.1,238.8,1228.3,245,1225.5,249.2z"/>
			<path class="st25" d="M1221.1,248.9c-0.3,2.7-0.9,5.4-1.8,8.1c-1,3.3-2.6,6.4-4.8,9.2c-6,7.2-21.6,6.5-28.8,0.9
				c-5-3.9-4-11,0.3-18.5c0.6,12.8,14.2,20.2,28.7,5.7l0.8-0.8C1217.3,251.9,1219.1,250.3,1221.1,248.9z"/>
			<path class="st26" d="M1231,248.2c-0.6,1.4-1.1,2.4-1.1,2.4l-4.4-1.4l-3.2-1C1227.3,245.2,1229.7,246.5,1231,248.2z"/>
			<path class="st9" d="M1219.5,256.4c0.9-2.8,1.4-5.7,1.7-8.7c2.8-2.2,7.6-2.2,9.8,0.3c0.6,0.7,1,1.5,1.1,2.4
				C1233,256,1227.9,261.7,1219.5,256.4z"/>
			<path class="st10" d="M1225.9,258.5c-2.3-0.1-4.5-0.8-6.3-2.1"/>
			<path class="st10" d="M1196.2,242.6c0.4-2.3,1.9-2.3,4.5-2.7c2.7-0.4,4.7-2.5,4.4-4.7"/>
			<path class="st10" d="M1223.1,251.5c1.5-1.5,4.1-1.6,5.7-0.3c0.3,0.3,0.6,0.6,0.8,0.9"/>
			<path class="st10" d="M1224.3,250.7c4.5-0.4,3.8,5.7-0.5,4.6"/>
			<path class="st27" d="M967.4,246.2c4.3-2.9,10-1.4,14.6,2.7c6.1,5.5,16.2,0,16.2,0"/>
			<path class="st27" d="M1002.7,240.4c-2.5,2-12,7.5-18.8,2.4s-17.2,1.3-17.2,1.3"/>
			<path class="st27" d="M966.9,237.3c2.2-2,10.3-6.3,15.5-0.6s12.1,0.5,12.1,0.5"/>
			<path class="st27" d="M976,228.9c1.3,1.4,10.3,4.6,15.6,2.6"/>
			<path class="st27" d="M989.1,202.3c-0.6-2.9,2-6.2,4.1-6.4"/>
			<path class="st27" d="M995.1,203c0.4-2.3,3.1-7.8,7-8"/>
			<path class="st27" d="M1001.3,207.9c1-4.4,3.9-9.2,8.6-11.2"/>
			<path class="st27" d="M1005.6,213.4c0.6-4.9,7.3-8.9,10.9-8.6"/>
			<path class="st27" d="M1004.6,220.6c4.3-3.7,11.9-7.1,15.9-7.3"/>
			<path class="st28" d="M1196.7,249.8c3.9,0.8,8.3,0.4,8.2,0.5c-0.1,0.2-0.8,5.4-5.1,4.8C1195.5,254.6,1196.7,249.8,1196.7,249.8z"
				/>
		</g>
	</g>
	<g id="Girl_L">
		<g id="hand-5">
			<polygon class="st29" points="583.1,219.4 579,219.8 574.2,220.3 577.5,216.9 580.5,213.8 			"/>
			<path class="st9" d="M206.1,310.9c12.7,7.2,24.2-0.8,27.4-15.2c4.7-21.4,8.7-75.3,8.7-75.3s6.4-12.5,8.5-17s1.7-8.5-1.3-9.7
				c0,0-3-8.4-7.6-8.6c-0.9-0.4-1.8-0.8-2.8-1.1c-2.3-0.4-6.6,1.5-7.7,2.6s2.6,2.2,4.7,1.9c2.1-0.3,3.7,4.5,2.7,6.5
				c-1,2-5,6.1-6.4,5c-1.4-1.1-1.9-4.7-1.3-7.6c0.6-2.9,0.2-4.3-2-3.2c-2.1,1.1-6.3,10.4-5.8,12.1c0.5,1.7,3.2,8.7,3.4,9.9
				s-20.6,62.6-24.7,73.3S197.2,305.8,206.1,310.9z"/>
			<path class="st10" d="M249.5,193.6c0.2,1.4,0.4,2.9,0.4,4.3"/>
			<path class="st10" d="M244,191.3c0.6,2,0.9,4,1,6.1"/>
			<path class="st21" d="M219.5,196.4l6.8-3.5c-1.6,2.9-3,6.5-3,8l-1.2,0.6C219.8,200.8,218.6,198.5,219.5,196.4
				C219.5,196.5,219.5,196.5,219.5,196.4z"/>
			<polygon class="st21" points="218,201.9 213.2,202.4 216.5,199.3 			"/>
			<path class="st10" d="M223.3,201.3c-0.5-1.7,3.7-11,5.8-12.1c1.6-0.8,2.2-0.3,2.2,1.2c0,0.7-0.1,1.3-0.3,1.9c-0.2,1-0.3,2-0.3,3
				c0,0.1,0,0.3,0,0.4v0.4c0,0.2,0,0.4,0.1,0.6l0.1,0.5c0.1,1,0.6,2,1.4,2.7c1.5,1.1,5.5-3,6.4-5c0.2-0.5,0.3-1,0.3-1.5"/>
			<path class="st10" d="M235.2,188.4c-2.1,0-4.8-1-3.8-1.9c1.1-1.1,5.4-3,7.7-2.6c1,0.3,1.9,0.6,2.8,1.1l0,0"/>
			<path class="st10" d="M247.4,189.5c0.8,1.3,1.5,2.7,2,4.2c1.9,0.8,2.8,2.7,2.5,5.3"/>
			<path class="st21" d="M251.7,187.5l-4.3,2l-8.3,3.9l-8.1,3.8c-0.3-1.6-0.3-3.3,0-4.9c0.1-0.6,0.2-1.3,0.3-1.9l3.9-2l6.7-3.4
				l6.5-3.3L251.7,187.5z"/>
			<path class="st12" d="M247.1,181.7c-0.4,1.5,0.8,6,3.9,6.8l2-1.1l-3.9-6.7L247.1,181.7z"/>
			<path class="st21" d="M252.7,183.2c1.2,1.9,1.4,3.8,0.6,4.2c-0.8,0.4-2.5-0.8-3.6-2.7c-1.1-1.9-1.4-3.8-0.6-4.2
				C250,180.1,251.6,181.3,252.7,183.2z"/>
			<path class="st10" d="M223.3,201.3c-0.5-1.7,3.7-11,5.8-12.1c1.6-0.8,2.2-0.3,2.2,1.2c0,0.7-0.1,1.3-0.3,1.9c-0.2,1-0.3,2-0.3,3
				c0,0.1,0,0.3,0,0.4v0.4c0,0.2,0,0.4,0.1,0.6l0.1,0.5c0.1,1,0.6,2,1.4,2.7c1.5,1.1,5.5-3,6.4-5c0.2-0.5,0.3-1,0.3-1.5"/>
		</g>
		<g id="body-3">
			<path class="st9" d="M110.4,294.3c-2.9,11.7-23.2,7.9-24.3,2c-1.1-6,0.7-7.5,2.3-18.4c1.3-9,18.3-9.2,21.3-3.1
				c0.5,1,0.6,2.1,0.3,3.1c-0.6,3.1-0.6,6.2-0.1,9.3C110.3,289.9,110.9,292.3,110.4,294.3z"/>
			<path class="st18" d="M109.9,277.8c-0.6,3.1-0.6,6.2-0.1,9.3c-8.7-2.2-10.2-11-10.2-11l9.9-1.4
				C110.1,275.6,110.2,276.7,109.9,277.8z"/>
			<path class="st9" d="M58.4,376.9l19.5,6.7c0,0-2.7,20.3-2.9,20c-0.2-0.3-32.8-3.4-32.8-3.4L58.4,376.9z"/>
			<path class="st12" d="M30,388.7c2.7,8.8,9.5,12,16.1,11.9c6.5-0.2,15.6-3.3,18.9-12.5c2.6-7.1-3-15.6-3-15.6L30,388.7z"/>
			<path class="st30" d="M67.1,493.2c0,0,2.5-12.3-2.8-32.5c-2.3-7.9-3.3-16.1-3-24.3l0,0c0.6-12.5,4.9-26.5,15.5-45.5l68-2.5
				c3,8.5,5.8,16.3,8.3,23.4c7.5,21.6,12.7,37.1,16.3,47.6c4.8,14,12.9,33.7,12.9,33.7L67.1,493.2z"/>
			<path class="st31" d="M153.2,411.9c-7.2,18.7-17.4,27.2-43.8,18.5c-23.7-7.8-32.4-13.5-48.1,6.1c0.6-12.5,4.9-26.5,15.5-45.5
				l68-2.5C147.9,396.9,150.7,404.7,153.2,411.9z"/>
			<path class="st13" d="M146.9,356.8c-3.8,13.1-0.3,27.3,1.2,30.4s0.3,5.2-1.9,5.6c-2.2,0.4-67.4,2.1-70.3,1.7
				c-2.9-0.4-3.9-2.4-3.9-4.6s-5.1-18-7.6-24.3c0,0-0.3,17.6-5.7,22.8s-18,7.3-25.9,3.5c-1.5-0.8-2.5-2.2-2.9-3.7
				c-3-8.4,1.6-27.6,4.9-41.3c1.3-5.5,3.1-12.4,5.5-19.2c4.8-13.8,11.6-27.6,20-30.1c18.8-5.5,32.5-3.4,42.4-4.2
				c3.1-0.3,6.1-0.6,9-0.9h0.1c15.8-1.8,27.9-3.4,33.9,5.7c0.9,1.4,1.7,3,2.2,4.6c3.7,11,2.2,18.2,1.4,28.4c0,0.4-0.1,0.8-0.1,1.2
				C149.9,340.7,149.1,348.9,146.9,356.8z"/>
			<path class="st32" d="M425.4,402.1L425.4,402.1c0,0-0.3,19.5-5.7,25.4c-5.4,5.8-18,8.2-25.9,3.9c-1.5-0.9-2.5-2.4-2.9-4.1
				c25.5,7.6,34-19.5,27.2-24.5c-6.6-4.9-6.5-17.9-2.5-24.7C418.3,385.8,423.3,395.7,425.4,402.1z"/>
			<path class="st17" d="M145.6,298.2c-7.2,4.9-13.3,11.3-15.7,19.5c-1.6,5.5-4.3,9.8-7.9,12.9c-9.7,8.3-26.3,7.4-47.8-3.4
				c-14.8-7.5-25-5.9-34.1,0.6c4.8-13.8,11.6-27.6,20-30.1c18.8-5.5,32.4-3.4,42.4-4.2c3.1-0.3,6.1-0.6,9-0.9h0.1
				C127.5,290.8,139.6,289.1,145.6,298.2z"/>
			<path class="st14" d="M52.8,337.8c0.3,2.1,0.9,4.2,1.7,6.2c2.7,7,7.8,15.9,9.8,21.7l0,0"/>
		</g>
		<g id="upper_hand-2">
			<path class="st13" d="M217.5,314.1c-4.1,2.5-27.5,8.3-45.9,13.1c-7.4,1.9-14.9,3.3-22.5,4.1c-6.7,0.7-13.5,0.8-20.3,0.3
				c-2.3-0.2-4.6-0.5-6.9-1c-28.7-6.2-24.1-35.8-10.4-38h0.1c19.5-3.1,39.3-5.3,59.1-6.5c8.6-0.5,17.3-0.7,25.8-0.5
				C229.4,286.3,221.7,311.7,217.5,314.1z"/>
			<path class="st14" d="M217.5,314.1c-4.1,2.5-27.5,8.3-45.9,13.1c-7.4,1.9-14.9,3.3-22.5,4.1c-6.7,0.7-13.5,0.8-20.3,0.3"/>
			<path class="st17" d="M170.8,286c-7.6,2.8-17.1,6.6-25.2,12.2c-7.2,4.9-13.3,11.3-15.7,19.5c-1.6,5.5-4.3,9.8-7.9,12.9
				c-28.7-6.2-24.1-35.8-10.4-38h0.1C131.3,289.4,151,287.3,170.8,286z"/>
			<path class="st12" d="M193.5,285.5c5.1-1.7,10.6-1.4,17.6,1.6c8.2,3.5,15.4,12.6,11.9,25.2c-0.6,2-9.3,6.2-10.8,5.3
				C210.8,316.6,222.3,291,193.5,285.5z"/>
		</g>
		<g id="head-3">
			<path class="st9" d="M91,278.8c17.4,3.7,26.1,2.1,28.4-6.1s-7.1-20.7-7.1-20.7l0.7-4.5c-2.1-0.9-4.1-1.8-6.1-2.8
				c-0.9-0.7-4-7.6-6.8-8.3c-2.8-0.7-22.6,8.5-16.7,23.6C89.3,275,91,278.8,91,278.8z"/>
			<path class="st19" d="M107.9,256.3c-0.6,1.7-3.7,2.4-7,1.4s-5.4-3.1-4.8-4.8c0.6-1.7,3.7-2.4,7-1.4
				C106.3,252.4,108.5,254.5,107.9,256.3z"/>
			<path class="st10" d="M112.3,252l0.7-4.5c-2.1-0.9-4.1-1.8-6.1-2.8"/>
			<path class="st33" d="M98.1,310.4c-8.2,1.8-10.2-5.6-10.2-5.6c-6.6,6.1-14.4,4.4-16.2,1.1c0,0-6.7,2.5-12.1-1.1
				c-7.4-5-2.6-12.4-2.6-12.4c-7.7-1.8-6.3-8.7-1.9-11.7l0.7-0.4c4.6-2.7,12.9-4.5,9.9-9.9c-3.2-5.7-5.8-13.6,2.4-18.1
				c0,0,0.4-8.5,6.3-11.3c5.9-2.8,6.3-3.9,6.4-5.5c0.4-5.8,6.6-11.3,13.5-7c0.2,0.1,0.4,0.3,0.7,0.4c7.4-0.7,9.4,5.6,8.1,8.6
				c2.7,7.8-3.7,13.7-1.9,16.4c2.1,3.1,0.5,6.9,0.5,6.9c-3.1-4.4-6.9-5.8-9.4-2c-2.1,3.1-0.4,7.1,6.4,10.9c7.3,4.1,3.9,9.3,2.3,13.3
				c-1.9,4.7-1.2,9.9,1.9,14C106.4,301.6,106.2,308.6,98.1,310.4z"/>
			<path class="st34" d="M459,340.6c-8.2,2-10.2-6.3-10.2-6.3c-6.6,6.8-14.4,4.9-16.2,1.3c0,0-6.7,2.8-12.1-1.3
				c-7.4-5.5-2.6-13.8-2.6-13.8c-7.7-2-6.3-9.7-1.9-13l0.7-0.5c3.1,8.7,8.8,13.5,14.5,12.1c7.7-1.8,12-6,19.2-1.6s9.3-16.2-1.2-19.3
				s-12.5-20.8-3.4-23c6.8-1.6,12.9-15.4,9.4-25.9c0.2,0.1,0.5,0.3,0.7,0.5c7.4-0.7,9.4,6.3,8.1,9.6c2.7,8.7-3.7,15.3-1.9,18.3
				c2.1,3.5,0.5,7.6,0.5,7.6c-3.1-4.9-6.9-6.4-9.4-2.2c-2.1,3.4-0.4,7.9,6.4,12.1c7.3,4.5,3.8,10.4,2.3,14.8
				c-1.9,5.2-1.2,11,1.9,15.6C467.5,330.8,467.2,338.6,459,340.6z"/>
			<path class="st21" d="M104.7,249c0,0.7,0.6,1.2,1.3,1.2s1.3-0.5,1.3-1.2c0-0.7-0.6-1.2-1.3-1.2
				C105.3,247.8,104.7,248.3,104.7,249C104.7,249,104.7,249,104.7,249z"/>
			<path class="st35" d="M57,292.4c3.8-6.7,7.2-6.5,10.5-8.8c3.2-2.2,4.6-6.9,4-9"/>
			<path class="st36" d="M432.7,335.6c-2.1-3.4-1.7-7.8,1-10.8"/>
			<path class="st36" d="M448.9,334.3c-1-2.6-0.8-5.4,0.4-7.9"/>
			<path class="st36" d="M442.7,263.8c4.4-1,4.9-4.2,6.2-6.8c1.3-2.6,3.4-6.6,7.1-7.2"/>
			<path class="st36" d="M464.2,259.5c-1.4-3-5.6-6.6-9.6-3"/>
			<path class="st10" d="M95.4,263.9c-0.1-3.4,3.6-4.2,6.5-1.6"/>
			<path class="st10" d="M100.4,265.3c-2.9,0-3-3.9,0.7-3.7"/>
			<path class="st10" d="M109.4,257c1.1,1.2,2.9,1.8,4.6,1.4"/>
			<path class="st10" d="M95,267.1c2.2,1.6,6.2,1.4,6.2,1.4"/>
			<ellipse class="st12" cx="103.5" cy="267.9" rx="2.8" ry="2.5"/>
			<path class="st37" d="M101.4,247.9c1.4,0.8,4.7-4.9,2.1-6.5S99.5,246.8,101.4,247.9z"/>
		</g>
	</g>
	<g id="foreground">
		<path class="st38" d="M36.5,498.1h1286c11.3,0,20.5,3.6,20.5,8.1v1.3c0,4.5-9.2,8.1-20.5,8.1H36.5c-11.3,0-20.5-3.6-20.5-8.1v-1.3
			C16,501.7,25.2,498.1,36.5,498.1z"/>
		<path class="st39" d="M55.8,515.5c34-6.4,84.5-7.8,122.9,0"/>
		<path class="st39" d="M44,498.1c33.5,7.4,55.8,6.8,97.2,6.5c30.8-0.2,67.9,6,92.6,10.9"/>
		<path class="st39" d="M203.2,498.1c24.3,10.8,41.2,12.1,49.4,9.4c8.7-3,17.6-3.8,26.8-0.6c10.7,3.6,25.5-3.7,33.8-8.7"/>
		<path class="st39" d="M298,515.5c9.8-3.6,27.4-8,54.6-8.7c32.3-0.8,73.4,5.1,95.4,8.7"/>
		<path class="st39" d="M405.6,498.1c37.9,7.9,79.4,12.5,112.9,8.7c32.7-3.6,110.8,0.9,139.2-8.7"/>
		<path class="st39" d="M549.5,515.5c24.3-5.5,62.2-8.8,91.7,0"/>
		<path class="st39" d="M683,515.5c45.2-13.9,135.4-16.4,210.7-8.8c89.2,9,129.1-1.4,145.3-8.7"/>
		<path class="st39" d="M764.2,515.5c32.7-5.8,76.7-7,123.2,0"/>
		<path class="st39" d="M1049.4,515.5c54.8-10.1,98.6-8.9,139.3,0"/>
		<path class="st39" d="M1126.7,498.1c90.3,12,165,21.2,214.2,5"/>
		<path class="st39" d="M1198.7,498.1c45.8,10.6,99.3,9.8,132.2,1"/>
	</g>
</g>
<g id="Layer_2">
	<rect x="569.4" y="85" class="st40" width="519.5" height="332.3"/>
	<text transform="matrix(1 0 0 1 569.3826 108.6432)"><tspan x="0" y="0" class="st41 st42">Build Digital Platform</tspan><tspan x="0" y="43.2" class="st41 st42">Creative Thinking, Online Marketing</tspan><tspan x="0" y="86.4" class="st41 st42">For the Growth of Business</tspan><tspan x="0" y="129.6" class="st41 st42">Skills </tspan><tspan x="0" y="172.8" class="st41 st42">Expect more Better than Most</tspan></text>
	<rect x="226" y="116" class="st40" width="235" height="61"/>
	<text transform="matrix(1 0 0 1 226 127.8076)"><tspan x="0" y="0" class="st41 st43">Cost</tspan><tspan x="0" y="21.6" class="st41 st43">Effective</tspan><tspan x="0" y="43.2" class="st41 st43">Alternative</tspan></text>
</g>
</svg>
